<svg id="Layer_1" data-name="Layer 1" xmlns="http://www.w3.org/2000/svg" viewBox="0 0 400 300" width="406" height="306" class="illustration styles_illustrationTablet__1DWOa"><path d="M106.22,58.88C73.75,71,49.67,101.81,44.92,139.05c-4,31.39,5.56,66.07,61.84,75.95C216.27,234.22,318.83,239.7,345,187.83S363.14,47.11,307.57,41.36C263.39,36.79,169.62,35.17,106.22,58.88Z" fill="#e6e6e6" opacity="0.3"></path><path d="M374.45,147.21a6.62,6.62,0,0,0-6.63-6.62,6.23,6.23,0,0,0-1.06.09,8.92,8.92,0,0,0-7.86-4.7l-.33,0a10.4,10.4,0,0,0,.33-2.57,10.6,10.6,0,1,0-21.19,0A10.9,10.9,0,0,0,338,136l-.32,0a8.93,8.93,0,1,0,0,17.85h31v-.06A6.62,6.62,0,0,0,374.45,147.21Z" fill="#dddbdb" opacity="0.43"></path><ellipse cx="197.78" cy="248.17" rx="157.31" ry="9.94" fill="#e6e6e6" opacity="0.45"></ellipse><path d="M138.63,159l29.83-22.42a36.21,36.21,0,0,1,21.75-7.26h76a48.53,48.53,0,0,1,40.62,21.86c12.28,18.75,23.27,47.35,5.54,76.81H65.73V202.42a23.48,23.48,0,0,1,18.19-22.89C101,175.57,125.91,168.56,138.63,159Z" fill="#68e1fd"></path><path d="M152.62,213.51V190.86h0a11.28,11.28,0,0,1,11.28-11.28H272.84a16.92,16.92,0,0,1,17,15.54,22,22,0,0,1-2.73,12.95l-12.46,5.44Z" opacity="0.03"></path><rect x="61.44" y="213.51" width="260.21" height="14.49" rx="3.1" fill="#68e1fd"></rect><rect x="61.44" y="213.51" width="260.21" height="14.49" rx="3.1" fill="#fff" opacity="0.46"></rect><circle cx="293.67" cy="225.92" r="22.74" fill="#24285b"></circle><circle cx="293.67" cy="225.92" r="13.2" fill="#fff"></circle><path d="M135.21,225.92a22.75,22.75,0,1,1-22.75-22.74A22.72,22.72,0,0,1,135.21,225.92Z" fill="#24285b"></path><circle cx="112.46" cy="225.92" r="13.2" fill="#fff"></circle><path d="M174.64,144.23l-22,21.09a3.81,3.81,0,0,0,2.63,6.56H278.1a6.94,6.94,0,0,0,6.57-9.18l-4.49-13.18a14.64,14.64,0,0,0-13.86-9.92H186.16A16.66,16.66,0,0,0,174.64,144.23Z" fill="#24285b"></path><path d="M291.43,136.35s-5.76,25,26.88,38.52C318.31,174.87,312.78,147.59,291.43,136.35Z" fill="#24285b"></path><path d="M109.66,191.8a2.43,2.43,0,0,1-.36-4.78,28.59,28.59,0,0,1,17.14.83,34.59,34.59,0,0,1,14,9.29,5.23,5.23,0,0,1-3,8.61h0a5.26,5.26,0,0,1-5.59-2.67C129.83,199.21,124.34,193.28,109.66,191.8Z" opacity="0.03"></path><polygon points="215.42 136.35 212.97 178.67 234.98 178.67 227.89 136.35 215.42 136.35" fill="#68e1fd"></polygon><rect x="152.62" y="205.83" width="133.04" height="2.24" fill="#24285b"></rect><rect x="176.54" y="179.58" width="15.77" height="6.5" rx="2.8" fill="#fff"></rect><rect x="264.69" y="179.58" width="15.77" height="6.5" rx="2.8" fill="#fff"></rect><polygon points="249.16 139.6 255.77 171.88 272.7 171.88 262.86 139.6 249.16 139.6" fill="#bed9f4" opacity="0.16"></polygon><polygon points="186.26 139.6 192.86 171.88 209.79 171.88 199.95 139.6 186.26 139.6" fill="#bed9f4" opacity="0.16"></polygon><rect x="150.52" y="160.92" width="21.69" height="11.87" rx="5.12" fill="#68e1fd"></rect><rect x="150.52" y="160.92" width="21.69" height="11.87" rx="5.12" fill="#fff" opacity="0.46"></rect><path d="M70.48,188.26H88a2.85,2.85,0,0,1,2.41,4.39l-4.67,7.28a7.05,7.05,0,0,1-5.94,3.25h-14v-1.85a20.34,20.34,0,0,1,4.75-13.07Z" fill="#fff"></path><circle cx="300.38" cy="82.94" r="19.98" fill="#ffd200"></circle><circle cx="300.38" cy="82.94" r="31.23" fill="#ffd200" opacity="0.15"></circle><path d="M209.12,68.94A10.14,10.14,0,0,0,199,58.81a10.86,10.86,0,0,0-1.63.14,13.64,13.64,0,0,0-12-7.19l-.49,0a16.4,16.4,0,0,0,.49-3.93,16.21,16.21,0,1,0-32.41,0,15.91,15.91,0,0,0,.5,3.93c-.17,0-.33,0-.5,0a13.66,13.66,0,0,0,0,27.31h47.39V79A10.14,10.14,0,0,0,209.12,68.94Z" fill="#efefef"></path><path d="M82.63,137.65A6.63,6.63,0,0,0,76,131a7.47,7.47,0,0,0-1.07.09,8.93,8.93,0,0,0-7.86-4.7l-.33,0a10.34,10.34,0,0,0,.33-2.57,10.6,10.6,0,0,0-21.19,0,10.83,10.83,0,0,0,.32,2.57l-.32,0a8.93,8.93,0,0,0,0,17.86h31v-.06A6.64,6.64,0,0,0,82.63,137.65Z" fill="#dddbdb"></path></svg>